<svg width="75" height="75" viewBox="0 0 75 75" fill="none" xmlns="http://www.w3.org/2000/svg">
<path d="M16.5463 40.8315C17.2352 40.8315 19.1642 40.8315 19.7154 40.0852C20.8176 38.5925 21.0794 36.5027 21.3688 35.4578C21.7821 33.9651 22.3333 34.1144 22.6089 35.9056C22.7421 36.7713 23.6268 45.0137 24.1673 46.653C24.8562 48.7428 25.4281 46.0118 25.6402 42.772C26.486 29.852 26.3373 21.2888 26.7602 20.4416C27.1831 19.5944 27.606 20.2298 27.606 20.4416C27.606 20.6534 28.0289 19.8062 28.2404 32.0908C28.4518 44.3754 28.8734 58.1811 29.0848 60.0873C29.2963 61.9935 30.1871 62.6249 30.4231 60.0873C30.4787 59.4902 30.389 58.5663 30.6005 50.0942C30.7696 43.3164 31.4122 24.6777 31.6236 16.4173C31.8406 12.7688 32.6778 12.1717 33.3153 14.0875C34.3726 17.2645 33.6306 18.5903 34.1829 42.3242C34.3637 50.0942 34.5963 54.8629 34.8719 58.7439C34.9904 60.4134 35.9094 61.118 36.1119 58.5946C36.3875 55.1614 37.2653 28.5963 37.4898 26.6509C37.6276 25.4567 38.1787 25.4567 38.4543 26.6509C38.7126 27.7703 39.5155 38.4078 39.6589 40.563C39.8704 43.74 40.9276 44.5872 41.562 41.622C41.8994 40.0447 41.9849 37.1741 42.8307 36.3269C43.9089 35.2469 44.4398 37.5779 44.5169 37.9954C44.9303 40.2344 45.1026 41.7812 45.757 43.9662C46.3914 46.0842 46.9419 45.3079 47.2726 43.8169C47.6955 41.9107 48.2371 32.9202 48.5127 27.6958C48.6266 25.5373 49.139 25.3075 49.4772 26.6509C49.8154 27.9943 50.0284 35.9056 50.0284 37.249C50.0284 39.5789 50.341 47.1881 50.7173 49.6384C51.1402 52.3919 51.7118 51.1532 51.9233 50.0942C52.1855 48.7806 52.3462 44.5872 52.5576 40.3512C52.7691 36.1151 52.9088 33.4353 53.192 32.7262C53.6149 31.6672 54.38 31.9713 54.6722 33.3616C55.518 37.3859 55.4999 39.5591 56.3665 40.3512C57.0555 40.9808 57.6066 40.8315 59.5356 40.8315" stroke="#68FB47"/>
<path d="M15.7032 40.6535C16.3989 40.6535 18.3469 40.6536 18.9034 39.9458C20.0165 38.5303 20.2809 36.5486 20.5731 35.5578C20.9905 34.1423 21.547 34.2839 21.8253 35.9824C21.9598 36.8034 22.8532 44.6194 23.399 46.174C24.0947 48.1556 24.6721 45.5659 24.8863 42.4937C25.7404 30.2419 25.5903 22.1217 26.0173 21.3183C26.4444 20.5149 26.8714 21.1174 26.8714 21.3183C26.8714 21.5191 27.2985 20.7157 27.512 32.365C27.7255 44.0142 28.1512 57.1057 28.3647 58.9134C28.5783 60.721 29.4778 61.3197 29.7162 58.9134C29.7722 58.3472 29.6817 57.471 29.8953 49.4371C30.0661 43.0099 30.7149 25.3352 30.9284 17.5021C31.1475 14.0424 31.9929 13.4762 32.6367 15.2928C33.7043 18.3055 32.9551 19.5628 33.5128 42.069C33.6954 49.4371 33.9302 53.9591 34.2085 57.6394C34.3282 59.2226 35.2562 59.8907 35.4607 57.4979C35.739 54.2422 36.6254 29.0512 36.8521 27.2064C36.9913 26.074 37.5478 26.074 37.8261 27.2064C38.0869 28.2679 38.8976 38.3552 39.0425 40.3989C39.256 43.4116 40.3237 44.215 40.9642 41.4031C41.305 39.9075 41.3913 37.1853 42.2454 36.3819C43.3342 35.3578 43.8703 37.5683 43.9481 37.9641C44.3655 40.0874 44.5395 41.5541 45.2004 43.6261C45.8409 45.6346 46.3968 44.8984 46.7309 43.4845C47.1579 41.6769 47.7048 33.1515 47.9831 28.1973C48.0981 26.1504 48.6155 25.9325 48.9571 27.2064C49.2986 28.4803 49.5136 35.9824 49.5136 37.2564C49.5136 39.4657 49.8293 46.6814 50.2093 49.0049C50.6364 51.616 51.2136 50.4413 51.4271 49.4371C51.6919 48.1915 51.8541 44.215 52.0677 40.198C52.2812 36.1811 52.4223 33.6399 52.7083 32.9675C53.1353 31.9632 53.9079 32.2516 54.2029 33.57C55.0571 37.3862 55.0388 39.447 55.9139 40.198C56.6096 40.7951 57.1662 40.6535 59.1141 40.6535" stroke="#6BC819"/>
<path fill-rule="evenodd" clip-rule="evenodd" d="M28.3844 10.3905C28.4687 10.6539 28.7533 10.7953 29.0159 10.7085V10.7085C29.2748 10.6228 29.42 10.3454 29.3368 10.0856L26.2187 0.347663C26.1345 0.0846728 25.8531 -0.0602586 25.5901 0.0239494V0.0239494C25.3271 0.108157 25.1822 0.389616 25.2664 0.652606L28.3844 10.3905ZM29.8358 9.92668C29.9056 10.1939 30.1815 10.3505 30.4481 10.2785V10.2785C30.7118 10.2073 30.8723 9.93786 30.8032 9.67366L28.9627 2.63611C28.8928 2.36895 28.6196 2.20902 28.3524 2.27889V2.27889C28.0853 2.34876 27.9253 2.62197 27.9952 2.88913L29.8358 9.92668ZM31.2397 9.5621C31.2962 9.83166 31.5627 10.0017 31.832 9.94414V9.94414C32.0998 9.88692 32.2747 9.6251 32.2185 9.35706L30.8781 2.95878C30.8215 2.68851 30.5565 2.5153 30.2862 2.57192V2.57192C30.016 2.62854 29.8428 2.89354 29.8994 3.16382L31.2397 9.5621ZM32.7804 9.25271C32.8227 9.52373 33.0781 9.70719 33.3492 9.6654V9.6654C33.6209 9.62351 33.8108 9.37038 33.7685 9.09868L33.3422 6.3642C33.2997 6.09135 33.044 5.90465 32.7712 5.94718V5.94718C32.4983 5.98972 32.3116 6.24539 32.3541 6.51823L32.7804 9.25271ZM34.1253 9.05471C34.1542 9.3274 34.4 9.52318 34.6728 9.49489V9.49489C34.9464 9.46652 35.1487 9.22295 35.1197 8.9494L34.7019 5.00427C34.6728 4.72966 34.4266 4.53063 34.152 4.55971V4.55971C33.8774 4.58879 33.6784 4.83498 33.7075 5.10959L34.1253 9.05471ZM35.6202 8.91517C35.635 9.18834 35.8694 9.39623 36.1426 9.38287V9.38287C36.418 9.3694 36.6337 9.13613 36.6187 8.86079L36.3345 3.64491C36.3195 3.36918 36.0838 3.15783 35.808 3.17286V3.17286C35.5323 3.18788 35.321 3.42358 35.336 3.69932L35.6202 8.91517ZM37.2391 9.11357C37.2391 9.24455 37.3459 9.35031 37.4769 9.35031V9.35031V9.35031C37.8944 9.35031 38.2391 9.01613 38.2391 8.59858V3.12732C38.2391 2.85118 38.0153 2.62732 37.7391 2.62732V2.62732C37.463 2.62732 37.2391 2.85118 37.2391 3.12732V9.11357ZM38.7091 8.88263C38.6948 9.15495 38.9062 9.38631 39.1783 9.40332V9.40332C39.4544 9.42058 39.6932 9.21123 39.7077 8.935L40.1425 0.645872C40.157 0.370109 39.9452 0.134831 39.6694 0.120365V0.120365C39.3937 0.105899 39.1584 0.317722 39.1439 0.593485L38.7091 8.88263ZM40.3673 9.00801C40.3376 9.27839 40.5343 9.52099 40.8043 9.55433V9.55433C41.0795 9.58832 41.3311 9.39282 41.3613 9.11719L42.0412 2.92834C42.0714 2.65385 41.8733 2.40689 41.5988 2.37673V2.37673C41.3243 2.34658 41.0773 2.54465 41.0472 2.81914L40.3673 9.00801ZM41.566 9.16107C41.5247 9.42975 41.7104 9.68053 41.9784 9.72573V9.72573C42.252 9.77186 42.5122 9.58745 42.5544 9.31324L42.8427 7.44061C42.8847 7.16768 42.6976 6.91237 42.4246 6.87035V6.87035C42.1517 6.82832 41.8964 7.01551 41.8544 7.28843L41.566 9.16107ZM43.1216 9.44275C43.0662 9.70796 43.2369 9.9676 43.501 10.028V10.028C43.7723 10.0901 44.0435 9.91985 44.1005 9.6474L45.843 1.31348C45.8995 1.04318 45.7262 0.778248 45.4559 0.721733V0.721733C45.1856 0.665218 44.9207 0.838523 44.8641 1.10882L43.1216 9.44275ZM44.4154 9.74778C44.3475 10.0098 44.5053 10.277 44.7659 10.3502V10.3502C45.0341 10.4255 45.3136 10.2683 45.3835 9.9986L45.8115 8.34674C45.8807 8.07942 45.7202 7.80657 45.4529 7.73731V7.73731C45.1856 7.66804 44.9127 7.8286 44.8434 8.09591L44.4154 9.74778ZM45.9214 10.1875C45.8385 10.4452 45.9804 10.7212 46.2365 10.8092V10.8092C46.4999 10.8998 46.788 10.759 46.8733 10.4939L49.3567 2.77886C49.4413 2.516 49.2968 2.23432 49.0339 2.14971V2.14971C48.7711 2.0651 48.4894 2.2096 48.4048 2.47246L45.9214 10.1875ZM47.4423 10.7332C47.3463 10.9851 47.4718 11.2669 47.7211 11.3695V11.3695C47.9798 11.476 48.277 11.3509 48.3767 11.0895L50.1456 6.44999C50.244 6.19197 50.1145 5.90305 49.8565 5.80467V5.80467C49.5985 5.70629 49.3096 5.83571 49.2112 6.09374L47.4423 10.7332ZM48.6929 11.2576C48.5847 11.5044 48.6961 11.792 48.9399 11.9067V11.9067C49.1932 12.0258 49.4964 11.9155 49.6087 11.6592L53.9699 1.71331C54.0808 1.46042 53.9656 1.16551 53.7127 1.05461V1.05461C53.4598 0.943722 53.1649 1.05884 53.054 1.31174L48.6929 11.2576ZM50.1544 11.968C50.0332 12.2077 50.1276 12.5001 50.3636 12.6286V12.6286C50.61 12.7629 50.9202 12.6697 51.0468 12.4192L55.0301 4.54086C55.1547 4.29443 55.056 3.99365 54.8095 3.86905V3.86905C54.5631 3.74445 54.2623 3.84322 54.1377 4.08965L50.1544 11.968ZM51.4093 12.6652C51.2763 12.8984 51.3555 13.1947 51.5842 13.3352V13.3352C51.8237 13.4822 52.1386 13.4048 52.2779 13.1608L55.2653 7.92434C55.4022 7.68448 55.3187 7.37911 55.0788 7.24227V7.24227C54.839 7.10543 54.5336 7.18894 54.3967 7.42879L51.4093 12.6652ZM52.6516 13.4426C52.5066 13.6684 52.5701 13.9684 52.7911 14.1206V14.1206C53.0225 14.28 53.3412 14.2193 53.4931 13.9828L58.8076 5.70389C58.9568 5.47151 58.8894 5.16219 58.657 5.01302V5.01302C58.4246 4.86384 58.1153 4.93129 57.9661 5.16368L52.6516 13.4426ZM53.7767 14.228C53.6204 14.4464 53.6689 14.7495 53.8823 14.9126V14.9126C54.1055 15.083 54.4265 15.0383 54.5899 14.8099L56.2826 12.4445C56.4433 12.22 56.3915 11.9077 56.167 11.747V11.747C55.9424 11.5863 55.6301 11.638 55.4694 11.8626L53.7767 14.228ZM55.089 15.2587C54.9217 15.4675 54.9527 15.7715 55.1554 15.9463V15.9463C55.3688 16.1303 55.6933 16.1038 55.8695 15.8838L61.7521 8.53928C61.9247 8.32375 61.8899 8.00908 61.6744 7.83646V7.83646C61.4588 7.66383 61.1442 7.69861 60.9715 7.91414L55.089 15.2587ZM56.0899 16.1331C55.9135 16.3339 55.9303 16.6386 56.1243 16.8225V16.8225C56.329 17.0166 56.6548 17.0052 56.8411 16.7933L60.8845 12.1928C61.0668 11.9854 61.0464 11.6695 60.839 11.4872V11.4872C60.6316 11.3049 60.3157 11.3252 60.1334 11.5326L56.0899 16.1331ZM57.2324 17.239C57.0448 17.4295 57.0444 17.7348 57.2278 17.9294V17.9294C57.4213 18.1346 57.7471 18.1416 57.945 17.9406L63.3165 12.4851C63.5103 12.2883 63.5078 11.9717 63.311 11.778V11.778C63.1142 11.5842 62.7977 11.5867 62.6039 11.7835L57.2324 17.239ZM58.2111 18.2943C58.0144 18.4752 57.9986 18.7797 58.1718 18.9832V18.9832C58.3548 19.1981 58.6802 19.2215 58.888 19.0304L60.5137 17.5356C60.717 17.3487 60.7303 17.0324 60.5434 16.8291V16.8291C60.3564 16.6258 60.0401 16.6125 59.8369 16.7995L58.2111 18.2943ZM59.2061 19.4868C58.9998 19.6567 58.9675 19.9598 59.1293 20.1724V20.1724C59.3003 20.397 59.624 20.4381 59.8419 20.2586L62.1194 18.3824C62.3325 18.2068 62.363 17.8917 62.1874 17.6786V17.6786C62.0118 17.4654 61.6967 17.435 61.4836 17.6106L59.2061 19.4868ZM60.0488 20.6059C59.8327 20.7649 59.7845 21.0673 59.9362 21.2885V21.2885C60.0954 21.5204 60.4151 21.5779 60.6416 21.4112L67.0344 16.7054C67.2568 16.5417 67.3044 16.2287 67.1407 16.0063V16.0063C66.977 15.7839 66.664 15.7364 66.4416 15.9001L60.0488 20.6059ZM60.8449 21.7867C60.6219 21.935 60.559 22.2341 60.6993 22.4622V22.4622C60.8469 22.7021 61.164 22.7754 61.3986 22.6195L63.1295 21.4686C63.3595 21.3157 63.422 21.0053 63.2691 20.7754V20.7754C63.1162 20.5454 62.8058 20.4829 62.5759 20.6358L60.8449 21.7867ZM61.6017 23.0364C61.3704 23.1726 61.2915 23.4688 61.4203 23.7044V23.7044C61.555 23.9509 61.867 24.0407 62.1091 23.8981L65.2863 22.0274C65.5242 21.8873 65.6036 21.5809 65.4635 21.3429V21.3429C65.3234 21.1049 65.0169 21.0256 64.7789 21.1657L61.6017 23.0364ZM62.3288 24.3959C62.0901 24.5192 61.9951 24.811 62.1111 25.0534V25.0534C62.2322 25.3066 62.5385 25.4131 62.7879 25.2843L69.0977 22.0233C69.343 21.8965 69.4391 21.5949 69.3123 21.3496V21.3496C69.1855 21.1042 68.8839 21.0082 68.6386 21.1349L62.3288 24.3959ZM63.008 25.8607C62.7639 25.9711 62.6536 26.2561 62.7553 26.5039V26.5039C62.8623 26.7644 63.1635 26.8879 63.4201 26.7719L67.12 25.0982C67.3716 24.9844 67.4833 24.6882 67.3695 24.4366V24.4366C67.2557 24.185 66.9595 24.0733 66.7079 24.1871L63.008 25.8607ZM63.469 26.9896C63.2192 27.0887 63.0956 27.3695 63.187 27.6222V27.6222C63.2825 27.8862 63.5767 28.0227 63.8376 27.9192L69.56 25.6505C69.8167 25.5488 69.9423 25.2582 69.8406 25.0015V25.0015C69.7388 24.7447 69.4482 24.6192 69.1915 24.7209L63.469 26.9896ZM64.0146 28.5552C63.7596 28.6397 63.6201 28.9127 63.6966 29.1702V29.1702C63.7767 29.4394 64.0626 29.5927 64.3292 29.5044L69.2336 27.8792C69.4957 27.7923 69.6378 27.5094 69.5509 27.2473V27.2473C69.4641 26.9852 69.1812 26.8431 68.919 26.93L64.0146 28.5552ZM64.4166 29.9403C64.1568 30.0112 64.0028 30.2773 64.0664 30.539V30.539C64.1327 30.8112 64.4095 30.9788 64.6798 30.905L68.6354 29.826C68.9018 29.7533 69.0588 29.4784 68.9862 29.212V29.212C68.9135 28.9456 68.6386 28.7885 68.3722 28.8612L64.4166 29.9403ZM64.7799 31.5134C64.5173 31.5703 64.3494 31.8268 64.3982 32.091V32.091C64.4492 32.3671 64.7173 32.5501 64.9917 32.4907L68.3145 31.7705C68.5844 31.712 68.7557 31.4458 68.6972 31.176V31.176C68.6388 30.9061 68.3726 30.7347 68.1027 30.7932L64.7799 31.5134ZM65.037 32.9579C64.7707 33.0002 64.5885 33.2484 64.6239 33.5158V33.5158C64.6607 33.7931 64.9174 33.9894 65.1937 33.9455L70.1985 33.1513C70.4712 33.108 70.6572 32.8519 70.6139 32.5791V32.5791C70.5707 32.3064 70.3145 32.1204 70.0417 32.1637L65.037 32.9579ZM65.2066 34.2787C64.9375 34.3076 64.7428 34.5477 64.766 34.8173V34.8173C64.7899 35.0951 65.036 35.3027 65.3133 35.273L69.6058 34.812C69.8804 34.7826 70.0791 34.5361 70.0496 34.2615V34.2615C70.0201 33.9869 69.7736 33.7883 69.4991 33.8177L65.2066 34.2787ZM65.3304 35.9123C65.0596 35.9254 64.851 36.1544 64.8591 36.4254V36.4254C64.8674 36.7036 65.1008 36.9246 65.3789 36.9111L74.5243 36.467C74.8001 36.4536 75.0128 36.2192 74.9994 35.9434V35.9434C74.986 35.6676 74.7516 35.4548 74.4758 35.4682L65.3304 35.9123ZM65.3639 37.3911C65.0923 37.3899 64.8716 37.6103 64.8661 37.8819V37.8819C64.8605 38.1597 65.0817 38.3898 65.3595 38.3911L67.8643 38.4023C68.1404 38.4035 68.3653 38.1807 68.3665 37.9045V37.9045C68.3677 37.6284 68.1449 37.4035 67.8688 37.4023L65.3639 37.3911ZM65.3192 38.9043C65.0483 38.8896 64.8171 39.0981 64.7976 39.3687V39.3687C64.7776 39.6462 64.9872 39.8878 65.2649 39.9029L68.1033 40.0571C68.3791 40.0721 68.6147 39.8607 68.6297 39.5849V39.5849C68.6447 39.3092 68.4333 39.0735 68.1576 39.0586L65.3192 38.9043ZM65.2025 40.3691C64.9325 40.3403 64.6907 40.5369 64.6576 40.8064V40.8064C64.6236 41.0823 64.8203 41.334 65.0967 41.3635L68.3423 41.7089C68.6169 41.7382 68.8632 41.5393 68.8925 41.2647V41.2647C68.9217 40.9901 68.7228 40.7438 68.4482 40.7146L65.2025 40.3691ZM65.0014 41.8991C64.7328 41.855 64.4799 42.0385 64.4323 42.3065V42.3065C64.3838 42.5795 64.5658 42.841 64.8394 42.8859L69.407 43.6361C69.6795 43.6808 69.9366 43.4962 69.9814 43.2237V43.2237C70.0261 42.9512 69.8415 42.694 69.569 42.6493L65.0014 41.8991ZM64.752 43.2494C64.486 43.1929 64.225 43.364 64.1647 43.6292V43.6292C64.1032 43.8997 64.2727 44.1699 64.5441 44.2276L66.8944 44.7272C67.1645 44.7846 67.43 44.6122 67.4875 44.3421V44.3421C67.5449 44.072 67.3725 43.8065 67.1023 43.749L64.752 43.2494ZM64.4027 44.7339C64.1395 44.6618 63.8683 44.8188 63.7938 45.0812V45.0812C63.7182 45.3473 63.8719 45.6254 64.1386 45.6984L73.7541 48.3306C74.0205 48.4035 74.2955 48.2467 74.3684 47.9804V47.9804C74.4413 47.714 74.2845 47.439 74.0182 47.3661L64.4027 44.7339ZM64.0018 46.112C63.7422 46.0257 63.4625 46.1688 63.3746 46.4278V46.4278C63.2861 46.6891 63.4247 46.974 63.6865 47.061L66.552 48.0132C66.8141 48.1003 67.0971 47.9585 67.1842 47.6964V47.6964C67.2713 47.4344 67.1294 47.1513 66.8674 47.0642L64.0018 46.112ZM63.5761 47.3527C63.3203 47.2532 63.0329 47.3831 62.933 47.6386V47.6386C62.8328 47.8947 62.957 48.1849 63.2133 48.2846L68.1796 50.2178C68.4369 50.3179 68.7268 50.1905 68.8269 49.9332V49.9332C68.9271 49.6759 68.7997 49.386 68.5424 49.2859L63.5761 47.3527ZM63.049 48.6757C62.7984 48.5626 62.5039 48.6778 62.3912 48.9286V48.9286C62.2786 49.1789 62.3875 49.4743 62.6376 49.5872L72.0143 53.8198C72.266 53.9334 72.5621 53.8214 72.6758 53.5698V53.5698C72.7894 53.3181 72.6774 53.0219 72.4257 52.9083L63.049 48.6757ZM62.5734 49.7418C62.3269 49.614 62.0238 49.7162 61.8997 49.9646V49.9646C61.7782 50.2077 61.8718 50.5044 62.113 50.6295L68.3628 53.8702C68.6079 53.9973 68.9097 53.9017 69.0368 53.6565V53.6565C69.1639 53.4114 69.0683 53.1096 68.8231 52.9825L62.5734 49.7418ZM61.8238 51.2002C61.5851 51.0586 61.2768 51.1433 61.1386 51.3841V51.3841C61.0034 51.6199 61.0798 51.9216 61.3136 52.0603L68.0888 56.0794C68.3263 56.2203 68.633 56.1419 68.7739 55.9044V55.9044C68.9148 55.6669 68.8365 55.3602 68.599 55.2193L61.8238 51.2002ZM60.9985 52.5972C60.7683 52.4443 60.4575 52.5119 60.3066 52.7434V52.7434C60.1575 52.9722 60.2179 53.2793 60.4454 53.4303L63.1274 55.2108C63.3575 55.3636 63.6678 55.3009 63.8205 55.0708V55.0708C63.9733 54.8408 63.9106 54.5305 63.6805 54.3777L60.9985 52.5972ZM60.3672 53.5659C60.1434 53.4017 59.8282 53.4558 59.6673 53.6821V53.6821C59.5098 53.9036 59.5565 54.2113 59.7756 54.3721L62.0284 56.0253C62.2511 56.1887 62.564 56.1406 62.7274 55.918V55.918C62.8907 55.6954 62.8427 55.3825 62.6201 55.2191L60.3672 53.5659ZM59.4597 54.818C59.2452 54.6412 58.927 54.678 58.7539 54.8955V54.8955C58.5848 55.1078 58.6144 55.4172 58.8238 55.5898L62.0352 58.2357C62.2483 58.4113 62.5635 58.3809 62.7391 58.1678V58.1678C62.9147 57.9546 62.8842 57.6395 62.6711 57.4639L59.4597 54.818ZM58.4371 56.0706C58.2328 55.8835 57.9144 55.9027 57.7298 56.1094V56.1094C57.5483 56.3124 57.5609 56.6242 57.7618 56.8081L62.0431 60.7287C62.2467 60.9152 62.563 60.9013 62.7495 60.6976V60.6976C62.936 60.494 62.9221 60.1777 62.7184 59.9912L58.4371 56.0706ZM57.4797 57.129C57.2853 56.9305 56.9652 56.9331 56.7699 57.1307V57.1307C56.579 57.3238 56.5753 57.6348 56.7653 57.8288L60.9496 62.1006C61.1428 62.2979 61.4594 62.3012 61.6567 62.1079V62.1079C61.8539 61.9147 61.8572 61.5981 61.664 61.4009L57.4797 57.129ZM56.4587 58.149C56.2749 57.9395 55.9541 57.925 55.7484 58.113V58.113C55.5485 58.2956 55.5284 58.6048 55.7069 58.8083L59.3062 62.9125C59.4883 63.1201 59.8042 63.1408 60.0118 62.9587V62.9587C60.2194 62.7767 60.2401 62.4608 60.058 62.2531L56.4587 58.149ZM55.4378 59.0684C55.2643 58.8506 54.945 58.8209 54.7306 58.9984V58.9984C54.5218 59.1712 54.4868 59.4796 54.6557 59.6915L58.7656 64.8495C58.9377 65.0655 59.2523 65.1011 59.4683 64.929V64.929C59.6842 64.7569 59.7198 64.4423 59.5477 64.2264L55.4378 59.0684ZM54.3299 59.9719C54.1678 59.7455 53.8503 59.6993 53.627 59.8658V59.8658C53.4099 60.0277 53.3591 60.3337 53.5167 60.5539L56.5726 64.8241C56.7333 65.0487 57.0456 65.1004 57.2702 64.9397V64.9397C57.4948 64.779 57.5465 64.4667 57.3858 64.2421L54.3299 59.9719ZM53.0859 60.8801C52.9363 60.6455 52.6222 60.5822 52.3904 60.736V60.736C52.1644 60.8858 52.0969 61.189 52.2426 61.4176L54.9331 65.6388C55.0815 65.8717 55.3906 65.9402 55.6235 65.7917V65.7917C55.8564 65.6433 55.9248 65.3342 55.7764 65.1014L53.0859 60.8801ZM51.8696 61.6714C51.7322 61.4299 51.4223 61.3508 51.1831 61.4921V61.4921C50.9493 61.6301 50.8662 61.9299 51.0004 62.1659L54.3971 68.1368C54.5337 68.3768 54.839 68.4607 55.079 68.3242V68.3242C55.319 68.1876 55.4029 67.8824 55.2663 67.6424L51.8696 61.6714ZM50.6877 62.3608C50.563 62.1118 50.2567 62.0166 50.0102 62.1462V62.1462C49.7705 62.2722 49.6723 62.5665 49.7936 62.8086L54.4148 72.0351C54.5385 72.282 54.8389 72.3819 55.0858 72.2583V72.2583C55.3327 72.1346 55.4326 71.8342 55.3089 71.5873L50.6877 62.3608ZM49.3962 63.0239C49.284 62.7699 48.9841 62.6598 48.7318 62.7758V62.7758C48.4851 62.8894 48.3717 63.1795 48.4815 63.428L50.2949 67.5326C50.4065 67.7852 50.7017 67.8995 50.9543 67.7879V67.7879C51.2069 67.6763 51.3212 67.381 51.2096 67.1285L49.3962 63.0239ZM47.995 63.6514C47.8969 63.392 47.604 63.2656 47.3459 63.3673V63.3673C47.093 63.4669 46.9635 63.7507 47.0596 64.0051L48.3849 67.5104C48.4825 67.7687 48.7711 67.899 49.0294 67.8013V67.8013C49.2877 67.7037 49.4179 67.4151 49.3202 67.1568L47.995 63.6514ZM46.6534 64.1672C46.5689 63.9032 46.2833 63.7618 46.0204 63.8497V63.8497C45.7623 63.9361 45.6181 64.213 45.701 64.4721L47.0263 68.6111C47.1105 68.8741 47.392 69.0191 47.655 68.9349V68.9349C47.918 68.8506 48.0629 68.5692 47.9787 68.3062L46.6534 64.1672ZM45.1794 64.6423C45.1094 64.3747 44.8328 64.2181 44.5659 64.2908V64.2908C44.3028 64.3625 44.143 64.6316 44.2119 64.8954L46.4973 73.6338C46.5672 73.901 46.8404 74.0609 47.1076 73.991V73.991C47.3747 73.9212 47.5347 73.648 47.4648 73.3808L45.1794 64.6423ZM43.8728 64.9891C43.8161 64.7184 43.5477 64.5483 43.2776 64.6077V64.6077C43.0113 64.6663 42.8381 64.9273 42.8941 65.1942L43.4849 68.0146C43.5415 68.2849 43.8065 68.4581 44.0768 68.4014V68.4014C44.3471 68.3448 44.5203 68.0798 44.4637 67.8095L43.8728 64.9891ZM42.5263 65.2762C42.4836 65.0026 42.224 64.8188 41.951 64.8645V64.8645C41.6823 64.9096 41.4962 65.1611 41.5382 65.4302L42.6809 72.7603C42.7235 73.0332 42.9791 73.2199 43.252 73.1773V73.1773C43.5248 73.1348 43.7115 72.8791 43.669 72.6063L42.5263 65.2762ZM41.1092 65.5004C41.0801 65.2257 40.831 65.0294 40.5566 65.0608V65.0608C40.2853 65.0917 40.086 65.3342 40.1148 65.6057L41.049 74.4267C41.0781 74.7013 41.3243 74.9003 41.5989 74.8712V74.8712C41.8735 74.8422 42.0726 74.596 42.0435 74.3214L41.1092 65.5004ZM39.7127 65.6493C39.6977 65.3735 39.459 65.1647 39.1833 65.182V65.182C38.9108 65.1991 38.6994 65.4311 38.7142 65.7037L39.1429 73.5726C39.158 73.8483 39.3937 74.0597 39.6694 74.0446V74.0446C39.9451 74.0296 40.1565 73.7939 40.1414 73.5182L39.7127 65.6493ZM38.2391 65.9871C38.2391 65.5695 37.8944 65.2354 37.4769 65.2354V65.2354V65.2354C37.3459 65.2354 37.2391 65.3411 37.2391 65.4721V74.3997C37.2391 74.6759 37.463 74.8997 37.7391 74.8997V74.8997C38.0153 74.8997 38.2391 74.6759 38.2391 74.3997V65.9871ZM36.7284 65.729C36.7429 65.4533 36.5262 65.2202 36.2503 65.2078V65.2078C35.9774 65.1956 35.7441 65.4038 35.7298 65.6766L35.6108 67.9455C35.5963 68.2213 35.8081 68.4566 36.0839 68.471V68.471C36.3596 68.4855 36.5949 68.2737 36.6094 67.9979L36.7284 65.729ZM35.152 65.6416C35.1822 65.3671 34.9793 65.1222 34.7046 65.0941V65.0941C34.4328 65.0662 34.1878 65.2608 34.158 65.5324L33.7095 69.6155C33.6793 69.89 33.8774 70.137 34.1519 70.1671V70.1671C34.4264 70.1973 34.6733 69.9992 34.7035 69.7247L35.152 65.6416ZM33.9023 65.5063C33.9443 65.234 33.753 64.9808 33.4804 64.9402V64.9402C33.2097 64.8998 32.9556 65.0836 32.914 65.3542L31.5257 74.3706C31.4837 74.6435 31.6709 74.8989 31.9438 74.9409V74.9409C32.2167 74.9829 32.4721 74.7957 32.5141 74.5228L33.9023 65.5063ZM32.4684 65.2806C32.5249 65.0108 32.3474 64.7478 32.0773 64.6927V64.6927C31.8092 64.6381 31.5456 64.8081 31.4896 65.0759L29.8992 72.6825C29.8427 72.9528 30.016 73.2178 30.2863 73.2743V73.2743C30.5566 73.3308 30.8215 73.1575 30.878 72.8872L32.4684 65.2806ZM31.133 64.9976C31.202 64.7313 31.0379 64.4607 30.7715 64.3923V64.3923C30.5059 64.3241 30.2337 64.4814 30.1649 64.7468L28.5456 70.9965C28.4763 71.2638 28.6369 71.5367 28.9042 71.6059V71.6059C29.1715 71.6752 29.4444 71.5147 29.5136 71.2473L31.133 64.9976ZM29.4746 64.5461C29.5586 64.2852 29.412 64.0063 29.1513 63.9216V63.9216C28.8896 63.8366 28.607 63.9777 28.5227 64.2397L25.2672 74.3532C25.1826 74.6161 25.3271 74.8978 25.59 74.9824V74.9824C25.8529 75.067 26.1345 74.9225 26.2191 74.6596L29.4746 64.5461ZM28.1615 64.1103C28.2593 63.8538 28.1271 63.5672 27.8707 63.4692V63.4692C27.614 63.3712 27.3249 63.4973 27.2271 63.754L24.4686 70.9889C24.3703 71.2469 24.4997 71.5358 24.7577 71.6342V71.6342C25.0157 71.7326 25.3046 71.6032 25.403 71.3451L28.1615 64.1103ZM26.8373 63.5912C26.9473 63.3403 26.8302 63.0482 26.5797 62.9373V62.9373C26.3279 62.8259 26.0321 62.9375 25.9215 63.1896L23.1164 69.5869C23.0055 69.8398 23.1206 70.1347 23.3735 70.2456V70.2456C23.6264 70.3565 23.9213 70.2414 24.0322 69.9885L26.8373 63.5912ZM25.4839 62.9782C25.6076 62.7336 25.5065 62.4353 25.2622 62.311V62.311C25.017 62.1862 24.7157 62.2815 24.5915 62.527L23.1464 65.3851C23.0218 65.6316 23.1206 65.9323 23.367 66.0569V66.0569C23.6135 66.1815 23.9143 66.0828 24.0389 65.8363L25.4839 62.9782ZM24.228 62.3267C24.3638 62.0887 24.2781 61.786 24.0406 61.6494V61.6494C23.8019 61.5121 23.4958 61.592 23.3594 61.8311L20.6917 66.5071C20.5549 66.747 20.6384 67.0523 20.8782 67.1892V67.1892C21.1181 67.326 21.4234 67.2425 21.5603 67.0026L24.228 62.3267ZM22.9436 61.572C23.0915 61.3417 23.0221 61.0352 22.7925 60.8862V60.8862C22.5613 60.7362 22.251 60.7999 22.1021 61.0318L17.6863 67.9107C17.5371 68.143 17.6045 68.4524 17.8369 68.6015V68.6015C18.0693 68.7507 18.3786 68.6833 18.5278 68.4509L22.9436 61.572ZM21.7108 60.7555C21.8698 60.5333 21.8165 60.2243 21.5955 60.0637V60.0637C21.3722 59.9013 21.0583 59.9489 20.8976 60.1735L17.1619 65.3937C17.0012 65.6183 17.053 65.9306 17.2776 66.0913V66.0913C17.5021 66.252 17.8145 66.2003 17.9752 65.9757L21.7108 60.7555ZM20.5899 59.9315C20.7612 59.7175 20.7239 59.405 20.5105 59.233V59.233C20.2961 59.0604 19.9814 59.0915 19.8094 59.3063L18.2943 61.1979C18.1217 61.4134 18.1565 61.7281 18.372 61.9007V61.9007C18.5875 62.0733 18.9022 62.0386 19.0748 61.823L20.5899 59.9315ZM19.6193 59.1433C19.8005 58.9372 19.7773 58.623 19.5715 58.4416V58.4416C19.3652 58.2597 19.0498 58.2766 18.8682 58.4831L17.2153 60.3638C17.033 60.5712 17.0534 60.8871 17.2608 61.0694V61.0694C17.4682 61.2517 17.7842 61.2313 17.9665 61.0239L19.6193 59.1433ZM18.4308 58.0729C18.6233 57.8774 18.618 57.5624 18.4228 57.3696V57.3696C18.2271 57.1763 17.9112 57.1753 17.7182 57.3713L13.3837 61.7736C13.19 61.9704 13.1924 62.287 13.3892 62.4807V62.4807C13.586 62.6744 13.9025 62.672 14.0963 62.4752L18.4308 58.0729ZM17.4702 57.1135C17.6725 56.9275 17.6826 56.6122 17.4966 56.41V56.41C17.3106 56.2079 16.9956 56.1915 16.7934 56.3774L13.9609 58.9818C13.7576 59.1687 13.7444 59.485 13.9313 59.6883V59.6883C14.1182 59.8916 14.4345 59.9048 14.6377 59.7179L17.4702 57.1135ZM16.4599 55.9966C16.6722 55.8217 16.6993 55.507 16.5241 55.2951V55.2951C16.3492 55.0836 16.0359 55.0503 15.8241 55.2248L12.6094 57.8731C12.3962 58.0487 12.3658 58.3638 12.5414 58.5769V58.5769C12.717 58.79 13.0321 58.8205 13.2452 58.6449L16.4599 55.9966ZM15.4169 54.7015C15.6378 54.5389 15.6824 54.2273 15.5203 54.0061V54.0061C15.3577 53.7841 15.0456 53.733 14.824 53.8961L7.12007 59.5671C6.89769 59.7308 6.85011 60.0438 7.01381 60.2662V60.2662C7.17751 60.4886 7.4905 60.5361 7.71289 60.3724L15.4169 54.7015ZM14.6762 53.6842C14.9052 53.532 14.9643 53.2218 14.8117 52.993V52.993C14.6594 52.7648 14.351 52.6996 14.1225 52.8515L9.90124 55.6581C9.67128 55.811 9.60881 56.1214 9.7617 56.3513V56.3513C9.91459 56.5813 10.225 56.6437 10.4549 56.4909L14.6762 53.6842ZM13.8012 52.3407C14.0379 52.2014 14.1141 51.8954 13.9747 51.6587V51.6587C13.8353 51.422 13.5306 51.3396 13.2938 51.479L8.54771 54.2734C8.30975 54.4135 8.23043 54.72 8.37053 54.958V54.958C8.51064 55.1959 8.81712 55.2753 9.05508 55.1352L13.8012 52.3407ZM13.0286 51.0003C13.2728 50.8741 13.3657 50.5726 13.2393 50.3285V50.3285C13.113 50.0847 12.8134 49.9859 12.5695 50.1119L7.19362 52.8903C6.9483 53.017 6.85221 53.3187 6.97899 53.564V53.564C7.10577 53.8093 7.40742 53.9054 7.65274 53.7786L13.0286 51.0003ZM12.4303 49.8369C12.6819 49.723 12.79 49.4248 12.6744 49.174V49.174C12.5599 48.9259 12.2671 48.8131 12.0182 48.9257L1.97591 53.4683C1.72432 53.5821 1.61261 53.8783 1.72642 54.1299V54.1299C1.84023 54.3815 2.13646 54.4932 2.38806 54.3794L12.4303 49.8369ZM11.8423 48.5331C12.0985 48.4315 12.2208 48.1397 12.118 47.8839V47.8839C12.0159 47.6299 11.7283 47.5026 11.4738 47.6035L7.23611 49.2836C6.97941 49.3853 6.85381 49.6759 6.95558 49.9326V49.9326C7.05736 50.1893 7.34796 50.3149 7.60466 50.2132L11.8423 48.5331ZM11.2751 47.0852C11.5373 46.9983 11.6761 46.713 11.5872 46.4515V46.4515C11.4992 46.1928 11.2199 46.05 10.9605 46.136L4.77683 48.1851C4.51471 48.2719 4.37263 48.5549 4.45949 48.817V48.817C4.54635 49.0791 4.82926 49.2212 5.09138 49.1343L11.2751 47.0852ZM10.7887 45.6063C11.055 45.5337 11.209 45.2565 11.1344 44.9907V44.9907C11.0606 44.7275 10.7892 44.5697 10.5255 44.6416L2.59064 46.8062C2.32423 46.8789 2.16718 47.1538 2.23985 47.4202V47.4202C2.31253 47.6866 2.58741 47.8436 2.85382 47.771L10.7887 45.6063ZM10.4318 44.3153C10.7028 44.2565 10.8712 43.986 10.8089 43.7158V43.7158C10.7477 43.4506 10.4859 43.2803 10.22 43.338L3.16112 44.8678C2.89124 44.9263 2.71987 45.1925 2.77836 45.4624V45.4624C2.83685 45.7322 3.10305 45.9036 3.37293 45.8451L10.4318 44.3153ZM10.0779 42.6921C10.3515 42.6487 10.5348 42.3886 10.4882 42.1156V42.1156C10.4424 41.847 10.1903 41.6618 9.92119 41.7045L0.421707 43.212C0.148977 43.2552 -0.0370278 43.5114 0.00625279 43.7842V43.7842C0.0495334 44.0569 0.30571 44.2429 0.578439 44.1996L10.0779 42.6921ZM9.84141 41.2296C10.1167 41.2 10.3128 40.9499 10.2803 40.6749V40.6749C10.2483 40.4042 10.0057 40.2062 9.73466 40.2353L7.8842 40.434C7.60964 40.4635 7.41096 40.71 7.44044 40.9845V40.9845C7.46993 41.2591 7.71641 41.4578 7.99097 41.4283L9.84141 41.2296ZM9.66672 39.6163C9.94378 39.6028 10.1545 39.3638 10.1373 39.0869V39.0869C10.1204 38.8154 9.89001 38.6043 9.61824 38.6175L6.24597 38.7812C5.97015 38.7946 5.75741 39.0291 5.7708 39.3049V39.3049C5.7842 39.5807 6.01865 39.7934 6.29447 39.78L9.66672 39.6163ZM9.24305 38.14C9.70838 38.1421 10.0817 37.7582 10.0817 37.2928V37.2928V37.2928C10.0817 37.2105 10.0153 37.1435 9.933 37.1431L6.25938 37.1267C5.98324 37.1254 5.75839 37.3483 5.75715 37.6244V37.6244C5.75592 37.9006 5.97877 38.1254 6.25491 38.1266L9.24305 38.14ZM9.57304 36.8769C9.85194 36.892 10.087 36.671 10.0957 36.3918V36.3918C10.1041 36.1217 9.89709 35.893 9.62728 35.8783L2.13397 35.4712C1.85824 35.4562 1.62257 35.6676 1.60758 35.9433V35.9433C1.5926 36.219 1.80398 36.4547 2.07972 36.4697L9.57304 36.8769ZM9.62549 35.459C9.90388 35.4886 10.1504 35.2791 10.1726 35V35C10.194 34.7313 9.99934 34.4931 9.73132 34.4646L6.28179 34.0974C6.0072 34.0682 5.7609 34.2671 5.73167 34.5417V34.5417C5.70245 34.8162 5.90135 35.0625 6.17594 35.0918L9.62549 35.459ZM9.77119 33.842C10.0476 33.8874 10.3057 33.692 10.3435 33.4144V33.4144C10.3798 33.1475 10.199 32.8988 9.93324 32.8552L5.74018 32.1666C5.46769 32.1218 5.21051 32.3064 5.16576 32.5789V32.5789C5.12101 32.8514 5.30563 33.1086 5.57812 33.1533L9.77119 33.842ZM9.9405 32.6201C10.2153 32.6785 10.4827 32.4943 10.5324 32.2178V32.2178C10.58 31.9535 10.4111 31.6978 10.1484 31.642L8.78107 31.3513C8.51096 31.2939 8.24545 31.4663 8.18803 31.7364V31.7364C8.13062 32.0065 8.30303 32.272 8.57314 32.3295L9.9405 32.6201ZM10.2626 30.95C10.5333 31.0241 10.8107 30.856 10.8766 30.5832V30.5832C10.9397 30.3219 10.7859 30.0564 10.5267 29.9855L4.37499 28.3015C4.10864 28.2285 3.83362 28.3853 3.76071 28.6517V28.6517C3.6878 28.918 3.84461 29.1931 4.11095 29.266L10.2626 30.95ZM10.6449 29.4349C10.911 29.5233 11.1969 29.3707 11.2775 29.1021V29.1021C11.3548 28.8444 11.2155 28.5707 10.9603 28.4859L7.96534 27.4907C7.70328 27.4036 7.42025 27.5454 7.33317 27.8075V27.8075C7.24609 28.0695 7.38793 28.3526 7.64998 28.4397L10.6449 29.4349ZM11.0918 27.9961C11.3527 28.0976 11.6454 27.9602 11.7399 27.6966V27.6966C11.8309 27.443 11.7056 27.1619 11.4546 27.0642L6.86509 25.2777C6.60775 25.1775 6.31794 25.3049 6.21777 25.5623V25.5623C6.1176 25.8196 6.24501 26.1094 6.50235 26.2096L11.0918 27.9961ZM11.6225 26.5591C11.8775 26.6742 12.1769 26.5527 12.2853 26.2947V26.2947C12.3897 26.0462 12.2796 25.7585 12.0339 25.6476L8.79737 24.1867C8.54568 24.0731 8.24955 24.185 8.13594 24.4367V24.4367C8.02232 24.6884 8.13426 24.9845 8.38595 25.0981L11.6225 26.5591ZM12.3814 24.8419C12.6278 24.9697 12.9309 24.8675 13.0551 24.6191V24.6191C13.1766 24.376 13.083 24.0793 12.8417 23.9542L4.34361 19.5476C4.09846 19.4205 3.79668 19.5162 3.66957 19.7613V19.7613C3.54245 20.0065 3.63813 20.3082 3.88328 20.4354L12.3814 24.8419ZM13.0907 23.4541C13.3299 23.596 13.6388 23.5107 13.7765 23.269V23.269C13.9109 23.0333 13.8342 22.7324 13.6009 22.594L7.12573 18.7529C6.88823 18.612 6.58149 18.6904 6.44061 18.9279V18.9279C6.29972 19.1654 6.37804 19.4721 6.61554 19.613L13.0907 23.4541ZM13.6958 22.394C13.9288 22.5487 14.2435 22.4774 14.3922 22.2406V22.2406C14.5357 22.0121 14.4736 21.7101 14.2489 21.5609L7.97234 17.394C7.74228 17.2413 7.43196 17.3039 7.27923 17.534V17.534C7.1265 17.7641 7.18918 18.0744 7.41924 18.2271L13.6958 22.394ZM14.4972 21.1462C14.7219 21.311 15.0384 21.2557 15.1986 21.0277V21.0277C15.3543 20.8062 15.3071 20.5001 15.0888 20.3399L10.7463 17.1534C10.5237 16.99 10.2108 17.038 10.0474 17.2607V17.2607C9.88405 17.4833 9.93209 17.7962 10.1547 17.9596L14.4972 21.1462ZM16.1423 19.7627C15.9695 19.9813 15.6505 20.0187 15.4354 19.8415L8.74801 14.3316C8.53488 14.156 8.50446 13.8409 8.68006 13.6278V13.6278C8.85565 13.4147 9.17077 13.3842 9.38389 13.5598L16.0713 19.0697C16.2803 19.2419 16.3103 19.5503 16.1423 19.7627V19.7627ZM16.9734 18.7606C16.7898 18.9718 16.4678 18.9935 16.2615 18.8045L12.3071 15.1833C12.1035 14.9968 12.0895 14.6806 12.276 14.4769V14.4769C12.4625 14.2732 12.7788 14.2593 12.9825 14.4458L16.9368 18.067C17.1357 18.2491 17.1503 18.5571 16.9734 18.7606V18.7606ZM18.0594 17.5817C17.8645 17.7814 17.5427 17.7851 17.3473 17.5857L8.69357 8.75075C8.50034 8.55348 8.50362 8.23691 8.70089 8.04368V8.04368C8.89817 7.85045 9.21473 7.85373 9.40796 8.05101L18.0617 16.8859C18.2509 17.079 18.2482 17.3882 18.0594 17.5817V17.5817ZM19.2339 16.4467C19.0281 16.6342 18.7076 16.6195 18.5241 16.4102L15.0083 12.4013C14.8262 12.1937 14.8469 11.8778 15.0545 11.6957V11.6957C15.2622 11.5137 15.5781 11.5344 15.7601 11.742L19.2759 15.7509C19.4546 15.9546 19.4342 16.2642 19.2339 16.4467V16.4467ZM20.1883 15.6162C19.9739 15.7943 19.6542 15.7647 19.4805 15.5468L16.0865 11.2872C15.9144 11.0713 15.9499 10.7567 16.1659 10.5846V10.5846C16.3819 10.4125 16.6964 10.4481 16.8685 10.6641L20.2626 14.9236C20.4313 15.1353 20.3965 15.4432 20.1883 15.6162V15.6162ZM27.9266 10.5678C28.0229 10.8224 27.8931 11.1064 27.6397 11.2059V11.2059C27.3818 11.3071 27.0892 11.1807 26.9912 10.9215L23.6397 2.05606C23.542 1.79776 23.6722 1.50921 23.9305 1.41156V1.41156C24.1888 1.31391 24.4774 1.44414 24.575 1.70244L27.9266 10.5678ZM26.2293 11.8065C26.4761 11.6929 26.5896 11.4028 26.4798 11.1542L22.6535 2.49377C22.5419 2.24118 22.2467 2.12688 21.9941 2.23847V2.23847C21.7415 2.35007 21.6272 2.6453 21.7388 2.89789L25.5651 11.5584C25.6773 11.8123 25.9771 11.9224 26.2293 11.8065V11.8065ZM25.0931 12.3615C25.3347 12.2364 25.4343 11.9408 25.3125 11.6975L23.4869 8.05253C23.3632 7.80563 23.0628 7.70572 22.8159 7.82939V7.82939C22.569 7.95305 22.4691 8.25345 22.5927 8.50036L24.4184 12.1454C24.5426 12.3933 24.8469 12.4889 25.0931 12.3615V12.3615ZM23.6958 13.138C23.9286 12.9995 24.011 12.7004 23.8771 12.465L19.9054 5.48329C19.7688 5.24327 19.4635 5.15938 19.2235 5.29593V5.29593C18.9835 5.43247 18.8996 5.73774 19.0362 5.97776L23.0079 12.9594C23.1456 13.2015 23.4565 13.2804 23.6958 13.138V13.138ZM22.5388 13.866C22.7644 13.716 22.8317 13.4132 22.6861 13.1847L19.3552 7.95864C19.2068 7.72577 18.8977 7.65732 18.6648 7.80574V7.80574C18.4319 7.95416 18.3635 8.26325 18.5119 8.49612L21.8429 13.7222C21.9925 13.957 22.3069 14.0202 22.5388 13.866V13.866ZM21.3373 14.712C21.5546 14.5502 21.6055 14.2441 21.4478 14.0237L16.8719 7.62959C16.7112 7.40503 16.3989 7.35326 16.1743 7.51397V7.51397C15.9498 7.67467 15.898 7.98699 16.0587 8.21156L20.6346 14.6057C20.7966 14.8321 21.114 14.8783 21.3373 14.712V14.712Z" fill="#57A31E"/>
</svg>
