<svg width="56" height="56" viewBox="0 0 56 56" fill="none" xmlns="http://www.w3.org/2000/svg">
<path d="M13.1531 30.8727C13.6573 30.8727 15.0691 30.8727 15.4725 30.3287C16.2793 29.2407 16.4709 27.7175 16.6827 26.9559C16.9852 25.8679 17.3886 25.9767 17.5903 27.2823C17.6878 27.9133 18.3353 33.921 18.7309 35.1159C19.2351 36.6391 19.6536 34.6485 19.8089 32.2871C20.4279 22.8699 20.3191 16.6283 20.6286 16.0108C20.9381 15.3933 21.2477 15.8564 21.2477 16.0108C21.2477 16.1652 21.5572 15.5477 21.712 24.5017C21.8667 33.4558 22.1752 43.5184 22.33 44.9079C22.4848 46.2973 23.1368 46.7575 23.3095 44.9079C23.3502 44.4727 23.2845 43.7992 23.4393 37.624C23.5631 32.6839 24.0334 19.0984 24.1882 13.0776C24.3469 10.4183 24.9597 9.98306 25.4263 11.3794C26.2001 13.6951 25.6571 14.6615 26.0613 31.9607C26.1936 37.624 26.3638 41.0999 26.5655 43.9287C26.6523 45.1456 27.3249 45.6591 27.4731 43.8199C27.6748 41.3175 28.3173 21.9546 28.4816 20.5367C28.5824 19.6663 28.9858 19.6663 29.1875 20.5367C29.3766 21.3526 29.9642 29.106 30.0691 30.6769C30.2239 32.9926 30.9977 33.6101 31.462 31.4488C31.709 30.2992 31.7715 28.2068 32.3906 27.5893C33.1797 26.8021 33.5683 28.5012 33.6247 28.8055C33.9272 30.4375 34.0533 31.5649 34.5323 33.1575C34.9966 34.7013 35.3995 34.1354 35.6416 33.0487C35.9511 31.6592 36.3475 25.1063 36.5492 21.2983C36.6325 19.725 37.0076 19.5575 37.2551 20.5367C37.5027 21.5159 37.6585 27.2823 37.6585 28.2615C37.6585 29.9596 37.8873 35.5059 38.1627 37.2919C38.4723 39.2988 38.8906 38.3959 39.0454 37.624C39.2373 36.6666 39.3549 33.6101 39.5097 30.5225C39.6644 27.4349 39.7667 25.4817 39.974 24.9649C40.2835 24.193 40.8434 24.4146 41.0573 25.428C41.6764 28.3612 41.6631 29.9452 42.2974 30.5225C42.8016 30.9815 43.205 30.8727 44.6168 30.8727" stroke="#68FB47"/>
<path d="M12.5361 30.7429C13.0453 30.7429 14.471 30.7429 14.8783 30.2271C15.693 29.1953 15.8865 27.7509 16.1003 27.0287C16.4058 25.997 16.8132 26.1002 17.0168 27.3382C17.1153 27.9366 17.7692 33.6335 18.1686 34.7666C18.6778 36.2111 19.1004 34.3234 19.2572 32.0842C19.8823 23.1541 19.7724 17.2354 20.085 16.6498C20.3975 16.0642 20.7101 16.5034 20.7101 16.6498C20.7101 16.7962 21.0226 16.2106 21.1789 24.7015C21.3352 33.1924 21.6468 42.7346 21.803 44.0522C21.9593 45.3697 22.6177 45.8061 22.7921 44.0522C22.8332 43.6395 22.7669 43.0009 22.9232 37.1451C23.0482 32.4604 23.5231 19.5777 23.6794 13.8683C23.8397 11.3465 24.4585 10.9338 24.9296 12.2579C25.711 14.4539 25.1627 15.3702 25.5709 31.7746C25.7045 37.1451 25.8764 40.4411 26.0801 43.1236C26.1677 44.2776 26.8469 44.7645 26.9966 43.0204C27.2002 40.6475 27.849 22.2861 28.0149 20.9415C28.1168 20.1162 28.5241 20.1162 28.7278 20.9415C28.9187 21.7153 29.512 29.0677 29.618 30.5573C29.7743 32.7532 30.5557 33.3388 31.0246 31.2893C31.274 30.1991 31.3371 28.215 31.9622 27.6294C32.7591 26.8829 33.1515 28.4941 33.2085 28.7826C33.514 30.3302 33.6413 31.3993 34.125 32.9095C34.5938 34.3735 35.0007 33.8369 35.2451 32.8064C35.5577 31.4888 35.958 25.2748 36.1616 21.6637C36.2458 20.1719 36.6245 20.013 36.8745 20.9415C37.1244 21.8701 37.2818 27.3382 37.2818 28.2668C37.2818 29.8771 37.5129 35.1365 37.791 36.8301C38.1036 38.7332 38.526 37.8771 38.6823 37.1451C38.8761 36.2372 38.9949 33.3388 39.1511 30.4109C39.3074 27.483 39.4107 25.6308 39.62 25.1407C39.9325 24.4087 40.498 24.6189 40.7139 25.5799C41.3391 28.3614 41.3257 29.8635 41.9662 30.4109C42.4754 30.8461 42.8827 30.7429 44.3084 30.7429" stroke="#6BC819"/>
<path fill-rule="evenodd" clip-rule="evenodd" d="M21.8033 9.08013C22.1164 8.968 22.4331 8.86355 22.7531 8.767L20.248 0.975708L19.296 1.2818L21.8033 9.08013ZM22.844 8.73981C23.1626 8.64533 23.4846 8.55867 23.8096 8.48004L22.2774 2.64533L21.3102 2.89934L22.844 8.73981ZM23.8518 8.4699C24.1748 8.39251 24.5009 8.32305 24.8298 8.26174L23.6984 2.883L22.7198 3.08885L23.8518 8.4699ZM24.9588 8.23815C25.6021 8.12266 26.2561 8.03833 26.919 7.98674L26.5357 4.38191L25.5413 4.48766L25.8748 7.62378L25.5218 5.36876L24.5338 5.52342L24.9588 8.23815ZM26.999 7.98068C27.3298 7.95629 27.6628 7.94004 27.9979 7.93215L27.7497 3.39662L26.7512 3.45125L26.999 7.98068ZM28.1638 7.92892C28.2663 7.92736 28.369 7.92657 28.4719 7.92657C28.7035 7.92657 28.9341 7.93056 29.1638 7.93847V3.0263H28.1638V7.92892ZM29.2208 7.94051C29.5557 7.95301 29.8885 7.97384 30.2189 8.00281L30.5759 1.22533L29.5773 1.17273L29.2208 7.94051ZM30.4146 8.02095C31.0397 8.082 31.6564 8.1722 32.2634 8.2902L32.5873 6.19536L31.6382 6.04863L31.9857 2.89847L30.9917 2.78883L30.4146 8.02095ZM32.3984 8.31695C33.0417 8.44668 33.6739 8.60768 34.2935 8.79832L34.7934 6.87677L33.8256 6.62498L33.5659 7.62345L34.8011 1.74009L33.8224 1.53462L32.3984 8.31695ZM34.4147 8.83605C34.7335 8.93641 35.0489 9.04464 35.3608 9.16051L37.4063 2.83196L36.4547 2.5244L34.4147 8.83605ZM35.5133 9.21793C36.1308 9.45322 36.7338 9.71855 37.3206 10.0122L40.8125 2.08147L39.8973 1.6785L36.627 9.1059L37.9995 5.52098L37.0656 5.16344L35.5133 9.21793ZM37.471 10.0883C37.7684 10.2402 38.0615 10.3995 38.3501 10.5658L41.6035 4.15772L40.7118 3.70503L37.471 10.0883ZM38.3773 10.5815C38.6663 10.7486 38.9508 10.9228 39.2305 11.1038L41.7886 6.6386L40.9209 6.14151L38.3773 10.5815ZM39.2745 11.1323C39.8298 11.4937 40.3663 11.8822 40.8824 12.2959L42.5572 9.96521L41.7451 9.38167L40.2647 11.4419L44.3938 5.03609L43.5533 4.4943L39.2745 11.1323ZM41.0377 12.4216C41.5423 12.8343 42.0268 13.2713 42.4894 13.7309L45.9455 9.81493L45.1957 9.15323L42.422 12.2961L46.5716 7.1365L45.7924 6.50979L41.0377 12.4216ZM42.5891 13.8306C42.824 14.0672 43.0531 14.3096 43.2764 14.5577L47.7354 10.0476L47.0243 9.34451L42.5891 13.8306ZM43.2984 14.5822C43.521 14.8304 43.7376 15.0842 43.948 15.3434L45.6919 13.7465L45.0165 13.009L43.2984 14.5822ZM44.0197 15.4322C44.2283 15.6921 44.4307 15.9573 44.6267 16.2276L46.8746 14.3834L46.2403 13.6103L44.0197 15.4322ZM44.6283 16.2299C44.8238 16.4996 45.013 16.7744 45.1955 17.054L50.4784 13.1813L49.8871 12.3748L44.6283 16.2299ZM45.2075 17.0725C45.3892 17.3516 45.5644 17.6355 45.7327 17.924L47.6252 16.671L47.0731 15.8372L45.2075 17.0725ZM45.756 17.964C45.9231 18.252 46.0835 18.5444 46.2369 18.8413L49.2081 17.0991L48.7023 16.2364L45.756 17.964ZM46.2848 18.9345C46.436 19.231 46.5804 19.5317 46.7175 19.8365L52.001 17.1172L51.5434 16.228L46.2848 18.9345ZM46.7821 19.9817C47.0327 20.5505 47.2584 21.1331 47.4578 21.728L52.3424 19.7995L51.9752 18.8693L49.6349 19.7933L50.5556 19.3786L50.1449 18.4668L46.7821 19.9817ZM47.5168 21.9068C47.6195 22.223 47.7148 22.5427 47.8024 22.8656L52.1035 21.4462L51.7901 20.4965L47.5168 21.9068ZM47.8108 22.8966C47.8974 23.2175 47.9765 23.5415 48.0478 23.8685L51.6645 22.8859L51.4024 21.9209L47.8108 22.8966ZM48.0808 24.0229C48.1491 24.3481 48.2098 24.6761 48.2626 25.0067L51.4275 24.3236L51.2165 23.3461L48.0808 24.0229ZM48.2703 25.0554C48.3706 25.693 48.4417 26.3404 48.4823 26.9963L52.3649 26.5811L52.2586 25.5867L49.3388 25.899L52.8029 25.3515L52.6468 24.3638L48.2703 25.0554ZM48.4923 27.1691C48.51 27.5003 48.52 27.8336 48.522 28.1688L55.9587 27.8092L55.9104 26.8103L48.4923 27.1691ZM48.5222 28.2278C48.5223 28.2497 48.5223 28.2715 48.5223 28.2934C48.5223 28.6065 48.5154 28.918 48.5016 29.2277L51.0777 29.2392L51.0822 28.2392L48.5222 28.2278ZM48.4976 29.3132C48.4814 29.6479 48.4572 29.9804 48.4252 30.3107L51.2456 30.4633L51.2996 29.4648L48.4976 29.3132ZM48.4201 30.3628C48.387 30.6961 48.346 31.027 48.2972 31.3554L51.4122 31.6856L51.5176 30.6912L48.4201 30.3628ZM48.2816 31.4586C48.1804 32.1176 48.0481 32.7661 47.8862 33.4026L50.333 33.9206L50.5401 32.9423L48.443 32.4983L52.1812 33.1097L52.3426 32.1228L48.2816 31.4586ZM47.8636 33.4907C47.7797 33.8145 47.6882 34.1351 47.5892 34.4524L55.3412 36.5657L55.6042 35.6009L47.8636 33.4907ZM47.5811 34.4782C47.3869 35.098 47.1642 35.7051 46.9146 36.2976L51.2362 37.9729L51.5976 37.0405L48.4275 35.8116L50.0575 36.351L50.3717 35.4017L47.5811 34.4782ZM46.9071 36.3155C46.6686 36.8801 46.4058 37.4316 46.1199 37.9686L51.3411 40.6648L51.8 39.7763L49.3336 38.5027L54.0288 40.6134L54.4389 39.7013L46.9071 36.3155ZM46.0369 38.1229C45.8774 38.4163 45.711 38.7052 45.5379 38.9896L51.1238 42.2895L51.6324 41.4285L46.0369 38.1229ZM45.4514 39.1305C45.1298 39.6492 44.7859 40.1522 44.4209 40.638L46.6576 42.2726L47.2222 41.5001L47.477 41.6685L48.0285 40.8343L45.4514 39.1305ZM44.3558 40.7241C44.154 40.9899 43.9458 41.2504 43.7315 41.5055L46.6441 43.8952L47.2784 43.1222L44.3558 40.7241ZM43.6273 41.6286C43.4107 41.8823 43.1881 42.1306 42.9596 42.3731L46.6319 45.7221L47.3058 44.9833L43.6273 41.6286ZM42.9445 42.3891C42.7155 42.6316 42.4807 42.8684 42.2402 43.0992L45.8125 46.7312L46.5255 46.03L42.9445 42.3891ZM42.216 43.1224C41.7374 43.5802 41.2367 44.0144 40.7156 44.4232L44.1769 48.7492L44.9578 48.1245L41.6713 44.0169L44.5899 47.3312L45.3404 46.6703L42.216 43.1224ZM40.6957 44.4388C40.4332 44.6442 40.1655 44.8431 39.8929 45.0353L42.5525 48.7365L43.3646 48.1529L40.6957 44.4388ZM39.8064 45.096C39.5331 45.2866 39.2549 45.4705 38.972 45.6474L41.3322 49.3352L42.1745 48.7962L39.8064 45.096ZM38.9363 45.6697C38.3769 46.0181 37.7994 46.3393 37.2055 46.6317L40.9131 54.0037L41.8065 53.5544L38.2561 46.4949L40.9207 51.1596L41.789 50.6635L38.9363 45.6697ZM37.1663 46.651C36.8673 46.7973 36.5642 46.9364 36.2572 47.0679L37.879 50.7234L38.793 50.3179L37.1663 46.651ZM36.1628 47.1081C35.8562 47.2375 35.5459 47.3594 35.2319 47.4736L36.4597 50.7079L37.3946 50.353L36.1628 47.1081ZM35.2015 47.4846C34.8888 47.5978 34.5725 47.7033 34.2528 47.8009L35.4452 51.5097L36.3972 51.2036L35.2015 47.4846ZM34.1445 47.8336C33.2083 48.1136 32.2436 48.326 31.2559 48.4654L32.2047 54.5263L33.1927 54.3716L32.2771 48.5229L32.8131 51.0708L33.7917 50.8649L33.3287 48.6642L35.037 55.169L36.0042 54.915L34.1445 47.8336ZM31.2245 48.4698C30.8957 48.5157 30.5644 48.5534 30.2308 48.5829L30.9916 55.7365L31.986 55.6307L31.2245 48.4698ZM30.2219 48.5837C29.8914 48.6127 29.5587 48.6336 29.2238 48.6461L29.5774 55.1084L30.5759 55.0538L30.2219 48.5837ZM29.1638 48.6483C28.9341 48.6562 28.7035 48.6602 28.4719 48.6602C28.369 48.6602 28.2663 48.6594 28.1638 48.6578V55.7043H29.1638V48.6483ZM28.0775 48.6563C27.7424 48.6497 27.4093 48.6348 27.0785 48.6118L26.9531 50.9923L27.9517 51.0449L28.0775 48.6563ZM26.9443 48.6019C26.3059 48.5531 25.6759 48.4739 25.0556 48.3657L23.9282 55.6579L24.9164 55.8107L25.7075 50.6938L25.5414 52.2L26.5353 52.3097L26.9443 48.6019ZM25.0136 48.3583C24.3585 48.2427 23.7143 48.0947 23.0827 47.9161L21.7137 53.1777L22.6815 53.4295L23.9538 48.5395L22.7198 54.4168L23.6985 54.6223L25.0136 48.3583ZM22.8554 47.8503C22.2152 47.6609 21.5882 47.44 20.9761 47.1892L18.6958 53.1454L19.6297 53.5029L21.8625 47.671L19.2962 55.6108L20.2477 55.9184L22.8554 47.8503ZM20.9554 47.1807C20.6465 47.0537 20.3414 46.9192 20.0404 46.7773L17.6921 52.1106L18.6073 52.5135L20.9554 47.1807ZM19.9802 46.7488C19.6787 46.6054 19.3813 46.4546 19.0882 46.2966L17.6991 49.0327L18.5908 49.4853L19.9802 46.7488ZM19.0739 46.2889C18.7802 46.1304 18.4909 45.9646 18.2062 45.7919L15.8896 49.8357L16.7573 50.3328L19.0739 46.2889ZM18.1463 45.7554C17.8617 45.5814 17.5816 45.4004 17.3064 45.2126L13.6772 50.8428L14.5178 51.3846L18.1463 45.7554ZM17.2548 45.1773C16.4589 44.6306 15.7038 44.0275 14.9949 43.3734L13.301 45.2928L14.0507 45.9545L14.2534 45.7249L14.0995 45.9162L14.8787 46.5429L16.4119 44.6366L13.2821 48.9923L14.0942 49.5758L17.2548 45.1773ZM14.8866 43.2728C14.4067 42.8234 13.9485 42.3506 13.5136 41.8561L10.9013 44.2483L11.5766 44.9858L13.7966 42.9529L10.4867 46.3008L11.1978 47.0039L14.8866 43.2728ZM13.461 41.7961C13.242 41.5451 13.029 41.2885 12.8223 41.0267L9.90458 43.4204L10.5388 44.1935L13.461 41.7961ZM12.7027 40.8737C12.3155 40.3736 11.9509 39.8547 11.6104 39.3185L7.91123 41.7679L8.46331 42.6016L10.4356 41.2957L5.88048 44.635L6.47171 45.4415L12.7027 40.8737ZM11.5304 39.1915C11.354 38.9092 11.1843 38.6222 11.0214 38.3307L6.91617 40.7378L7.42198 41.6005L11.5304 39.1915ZM10.9687 38.2357C10.6582 37.6729 10.3732 37.0936 10.1154 36.4994L2.10091 40.1097L2.51164 41.0215L9.39974 37.9185L5.9218 39.7086L6.37943 40.5977L10.9687 38.2357ZM10.1052 36.4757C9.97318 36.1705 9.84835 35.8613 9.73089 35.5484L5.94986 37.0412L6.3171 37.9713L10.1052 36.4757ZM9.69149 35.4426C9.57637 35.1307 9.46856 34.8151 9.36828 34.4962L4.1499 36.2183L4.46329 37.1679L9.69149 35.4426ZM9.33397 34.386C9.14301 33.7665 8.98041 33.1342 8.8477 32.4908L2.9707 33.7592L3.18168 34.7367L8.27493 33.6374L2.55097 35.1925L2.81314 36.1575L9.33397 34.386ZM8.81011 32.3041C8.74605 31.9783 8.68964 31.6497 8.64109 31.3184L0.969238 32.5309L1.12534 33.5186L8.81011 32.3041ZM8.63228 31.2578C8.58512 30.9292 8.54568 30.5981 8.51415 30.2647L6.43518 30.487L6.54152 31.4813L8.63228 31.2578ZM8.4996 30.1041C8.47093 29.7736 8.45004 29.4409 8.4371 29.106L5.2422 29.2605L5.2905 30.2593L8.4996 30.1041ZM8.43499 29.0492C8.42598 28.7984 8.42144 28.5464 8.42144 28.2934C8.42144 27.9084 8.43195 27.526 8.4527 27.1463L2.24631 26.8105L2.19228 27.809L6.46978 28.0404L5.25858 28.0351L5.25413 29.035L8.43499 29.0492ZM8.4535 27.1318C8.47202 26.7971 8.4985 26.4647 8.53274 26.1346L5.29041 25.7909L5.185 26.7853L8.4535 27.1318ZM8.55006 25.9736C8.62023 25.345 8.71857 24.7251 8.84376 24.1151L7.13906 23.7542L6.9395 24.6969L4.90422 24.364L4.74281 25.3509L8.55006 25.9736ZM8.88872 23.9018C8.9595 23.5747 9.03801 23.2505 9.12407 22.9295L3.92668 21.5126L3.66366 22.4774L8.88872 23.9018ZM9.15515 22.8149C9.24365 22.4922 9.33976 22.1728 9.44329 21.8569L6.56693 20.905L6.25275 21.8544L9.15515 22.8149ZM9.46817 21.7815C9.57353 21.4641 9.68637 21.1502 9.80649 20.8401L5.7742 19.277L5.41276 20.2094L9.46817 21.7815ZM9.84178 20.7496C9.96399 20.4385 10.0935 20.1312 10.2302 19.8278L7.20238 18.4667L6.79237 19.3788L9.84178 20.7496ZM10.3763 19.5107C10.5187 19.2085 10.6683 18.9104 10.8247 18.6167L3.95787 15.0707L3.49904 15.9592L10.3763 19.5107ZM10.8794 18.5146C11.1768 17.9639 11.4984 17.4286 11.8429 16.9103L6.64611 13.4744L6.0946 14.3086L9.18956 16.3548L6.01089 14.477L5.50225 15.338L10.8794 18.5146ZM11.8788 16.8565C12.0645 16.5791 12.2567 16.3066 12.4553 16.0392L8.6914 13.2886L8.10137 14.096L11.8788 16.8565ZM12.5464 15.9175C12.9383 15.398 13.3541 14.8983 13.7924 14.42L10.3644 11.2938L9.69058 12.0327L12.4018 14.5052L7.71278 10.6578L7.07846 11.4309L12.5464 15.9175ZM13.9089 14.294L7.05439 7.3248L7.76734 6.62358L14.6086 13.5793C14.3696 13.8116 14.1363 14.0499 13.9089 14.294ZM14.7486 13.4445L11.6858 9.96655L12.4363 9.30566L14.4206 11.559L12.4841 9.1386L13.2649 8.51385L16.2017 12.1844C15.6977 12.5811 15.2127 13.0017 14.7486 13.4445ZM16.2559 12.1419L12.4746 6.87987L13.2867 6.29631L17.0589 11.5458C16.7862 11.7378 16.5185 11.9366 16.2559 12.1419ZM17.1194 11.5033L14.2823 7.07029L15.1245 6.53123L17.944 10.9366L14.6782 5.21941L15.5465 4.7234L18.8128 10.4413C18.23 10.7674 17.665 11.122 17.1194 11.5033ZM18.9625 10.3584L17.2949 7.04265L18.1883 6.59334L19.1472 8.50007L16.6831 2.94564L17.5972 2.54012L20.6921 9.51646C20.1006 9.76966 19.5235 10.0508 18.9625 10.3584ZM20.8046 9.46872L18.0899 2.31761L19.0248 1.9627L21.7359 9.10439C21.4218 9.21818 21.1113 9.3397 20.8046 9.46872Z" fill="#57A31E"/>
</svg>
