<svg width="459" height="69" viewBox="0 0 459 69" fill="none" xmlns="http://www.w3.org/2000/svg">
<path d="M24.1562 0.585938C26.8385 0.585938 30.3542 1.25 34.7031 2.57812C35.224 2.73438 35.6406 2.8125 35.9531 2.8125C36.2135 2.8125 36.9948 2.57812 38.2969 2.10938C38.7135 1.95312 39.1562 1.875 39.625 1.875C41.3698 1.875 43.2057 3.25521 45.1328 6.01562C47.0859 8.77604 48.0625 11.4062 48.0625 13.9062C48.0625 15.3646 47.6198 16.6016 46.7344 17.6172C45.875 18.6068 44.8203 19.1016 43.5703 19.1016C42.5286 19.1016 41.6823 18.8932 41.0312 18.4766C40.3802 18.0599 38.9479 16.8229 36.7344 14.7656C33.6094 11.849 30.5365 10.3906 27.5156 10.3906C26.0573 10.3906 24.8854 10.7422 24 11.4453C23.1406 12.1484 22.7109 13.0729 22.7109 14.2188C22.7109 16.4844 24.7031 18.1901 28.6875 19.3359C34.0781 20.9245 37.5286 22.0833 39.0391 22.8125C45.6797 26.0417 49 30.7943 49 37.0703C49 42.6172 46.7344 47.1484 42.2031 50.6641C37.5677 54.2578 31.513 56.0547 24.0391 56.0547C20.7057 56.0547 17.1901 55.6641 13.4922 54.8828C9.79427 54.0755 7.125 53.138 5.48438 52.0703C4.23438 51.237 3.10156 49.4271 2.08594 46.6406C1.09635 43.8281 0.601562 41.0938 0.601562 38.4375C0.601562 37.1615 0.861979 36.1979 1.38281 35.5469C2.03385 34.7135 2.85417 34.2969 3.84375 34.2969C4.83333 34.2969 5.78385 34.8047 6.69531 35.8203C7.24219 36.3932 8.53125 38.2292 10.5625 41.3281C11.526 42.7865 13.0495 43.9974 15.1328 44.9609C17.2422 45.9245 19.4167 46.4062 21.6562 46.4062C23.5833 46.4062 25.1458 46.0547 26.3438 45.3516C27.5417 44.6224 28.1406 43.6979 28.1406 42.5781C28.1406 41.5365 27.6719 40.638 26.7344 39.8828C25.7969 39.1276 24.2734 38.4245 22.1641 37.7734C18.4401 36.6016 15.6016 35.5339 13.6484 34.5703C11.6953 33.5807 9.8724 32.3438 8.17969 30.8594C4.0651 27.2135 2.00781 23.0729 2.00781 18.4375C2.00781 16.1458 2.54167 13.9193 3.60938 11.7578C4.67708 9.57031 6.1875 7.68229 8.14062 6.09375C12.5156 2.42188 17.8542 0.585938 24.1562 0.585938ZM89.3516 35.3125L84.1953 49.4922C82.9193 53.0078 81.6302 55.8724 80.3281 58.0859C79.0521 60.3255 77.5938 62.2266 75.9531 63.7891C72.5677 67.0182 68.4922 68.6328 63.7266 68.6328C59.8724 68.6328 56.7474 67.6172 54.3516 65.5859C52.5026 64.0234 51.5781 62.0312 51.5781 59.6094C51.5781 57.6042 52.2161 55.9245 53.4922 54.5703C54.7943 53.1901 56.3828 52.5 58.2578 52.5C60.1328 52.5 61.6432 53.125 62.7891 54.375C63.3359 54.9479 63.7005 55.4557 63.8828 55.8984C64.0651 56.3411 64.3385 57.3177 64.7031 58.8281C64.9896 59.974 65.6406 60.5469 66.6562 60.5469C67.4635 60.5469 68.1406 60.1953 68.6875 59.4922C69.2344 58.7891 69.5078 57.9167 69.5078 56.875C69.5078 55.651 68.8307 53.6068 67.4766 50.7422L58.0625 30.7031C57.0729 28.6198 56.3307 27.3177 55.8359 26.7969C55.3411 26.276 54.2474 25.638 52.5547 24.8828C52.0339 24.6745 51.5781 24.2708 51.1875 23.6719C50.8229 23.0469 50.6406 22.4479 50.6406 21.875C50.6406 19.5573 52.9453 17.9818 57.5547 17.1484C60.6276 16.6016 64.1302 16.3281 68.0625 16.3281C70.8229 16.3281 72.9974 16.6146 74.5859 17.1875C76.7214 17.9427 77.7891 19.2318 77.7891 21.0547C77.7891 21.7057 77.4896 22.474 76.8906 23.3594C76.3177 24.1927 76.0312 24.9349 76.0312 25.5859C76.0312 26.2109 76.1615 26.862 76.4219 27.5391C76.7083 28.2161 77.2943 29.362 78.1797 30.9766C79.1693 32.7995 80.0417 33.7109 80.7969 33.7109C81.6042 33.7109 82.4375 32.9167 83.2969 31.3281C84.1562 29.7135 84.5859 28.1641 84.5859 26.6797C84.5859 25.4818 84.2604 24.5052 83.6094 23.75C82.6198 22.5781 82.125 21.5755 82.125 20.7422C82.125 19.4141 83.0104 18.3594 84.7812 17.5781C86.5521 16.7708 88.9219 16.3672 91.8906 16.3672C97.4115 16.3672 100.172 17.6953 100.172 20.3516C100.172 21.3151 99.8854 22.0964 99.3125 22.6953C98.7656 23.2682 97.75 23.8151 96.2656 24.3359C95.0156 24.8047 94.026 25.5859 93.2969 26.6797C92.151 28.4245 90.8359 31.3021 89.3516 35.3125ZM149.039 30.5078L149.586 44.2578C149.638 45.2995 149.794 46.0677 150.055 46.5625C150.341 47.0573 151.148 48.0078 152.477 49.4141C152.867 49.8307 153.062 50.4167 153.062 51.1719C153.062 52.8906 152.034 54.0885 149.977 54.7656C147.919 55.4427 144.247 55.7812 138.961 55.7812C135.367 55.7812 132.828 55.4688 131.344 54.8438C129.807 54.1927 129.039 53.138 129.039 51.6797C129.039 51.1589 129.117 50.7812 129.273 50.5469C129.43 50.2865 129.951 49.6745 130.836 48.7109C131.878 47.6172 132.398 43.9714 132.398 37.7734C132.398 34.1797 131.982 31.5234 131.148 29.8047C130.471 28.4245 129.221 27.7344 127.398 27.7344C125.654 27.7344 124.456 28.2943 123.805 29.4141C123.154 30.5339 122.828 32.5651 122.828 35.5078V43.2422C122.828 44.7786 122.919 45.8333 123.102 46.4062C123.31 46.9792 123.961 48.0859 125.055 49.7266C125.341 50.1953 125.484 50.7292 125.484 51.3281C125.484 52.8646 124.417 53.9974 122.281 54.7266C120.146 55.4557 116.812 55.8203 112.281 55.8203C105.042 55.8203 101.422 54.3229 101.422 51.3281C101.422 50.7031 101.526 50.2344 101.734 49.9219C101.969 49.5833 102.503 49.1146 103.336 48.5156C104.013 48.0208 104.443 47.4609 104.625 46.8359C104.807 46.1849 104.977 44.6094 105.133 42.1094C105.315 39.1406 105.406 36.0286 105.406 32.7734C105.406 30.9766 105.263 29.8047 104.977 29.2578C104.716 28.6849 103.935 27.9948 102.633 27.1875C101.513 26.4844 100.953 25.625 100.953 24.6094C100.953 23.5677 101.409 22.7214 102.32 22.0703C103.232 21.3932 105.107 20.5469 107.945 19.5312C110.445 18.6458 112.854 17.9036 115.172 17.3047C117.49 16.6797 119.078 16.3672 119.938 16.3672C120.719 16.3672 121.37 16.6536 121.891 17.2266C122.438 17.7995 122.711 18.4766 122.711 19.2578C122.711 19.3359 122.698 19.6615 122.672 20.2344C122.646 20.4427 122.633 20.625 122.633 20.7812C122.633 22.0312 123.154 22.6562 124.195 22.6562C124.82 22.6562 125.484 22.1615 126.188 21.1719C128.427 17.9427 131.682 16.3281 135.953 16.3281C139.234 16.3281 142.047 17.1875 144.391 18.9062C146.031 20.1302 147.177 21.5755 147.828 23.2422C148.479 24.8828 148.883 27.3047 149.039 30.5078ZM178.531 26.3281V39.5312C178.531 41.0938 178.909 42.3698 179.664 43.3594C180.445 44.349 181.435 44.8438 182.633 44.8438C183.648 44.8438 184.99 44.375 186.656 43.4375C187.047 43.2031 187.438 43.0859 187.828 43.0859C188.453 43.0859 189.026 43.4635 189.547 44.2188C190.068 44.974 190.328 45.7943 190.328 46.6797C190.328 48.2943 189.443 49.8438 187.672 51.3281C183.974 54.4792 179.495 56.0547 174.234 56.0547C170.068 56.0547 166.721 54.8828 164.195 52.5391C161.669 50.1693 160.406 47.0573 160.406 43.2031V25.1562C160.406 24.5573 160.328 24.1927 160.172 24.0625C160.042 23.9062 159.677 23.8281 159.078 23.8281H155.055C154.299 23.8281 153.818 23.7109 153.609 23.4766C153.401 23.2161 153.297 22.6302 153.297 21.7188V20C153.323 19.2188 153.622 18.6458 154.195 18.2812L172.086 7.03125C172.529 6.79688 173.076 6.67969 173.727 6.67969H176.891C177.542 6.67969 177.971 6.83594 178.18 7.14844C178.414 7.4349 178.531 8.02083 178.531 8.90625V14.1797C178.531 14.9609 178.648 15.4688 178.883 15.7031C179.143 15.9375 179.677 16.0547 180.484 16.0547H187.711C188.674 16.0547 189.299 16.237 189.586 16.6016C189.872 16.9401 190.016 17.6823 190.016 18.8281V21.1328C190.016 22.3828 189.833 23.2552 189.469 23.75C189.104 24.2188 188.44 24.4531 187.477 24.4531H180.406C179.677 24.4531 179.182 24.5833 178.922 24.8438C178.661 25.1042 178.531 25.599 178.531 26.3281ZM214.391 3.59375L213.883 19.9609C213.831 21.9141 214.43 22.8906 215.68 22.8906C216.305 22.8906 216.917 22.4609 217.516 21.6016C220.042 17.9297 223.414 16.0938 227.633 16.0938C231.773 16.0938 235.068 17.3568 237.516 19.8828C238.609 21.0026 239.378 22.3307 239.82 23.8672C240.289 25.4036 240.549 27.6042 240.602 30.4688L240.953 44.5703C240.979 45.7943 241.135 46.6927 241.422 47.2656C241.734 47.8385 242.438 48.5547 243.531 49.4141C244.286 50.013 244.664 50.7292 244.664 51.5625C244.664 54.375 240.419 55.7812 231.93 55.7812C224.378 55.7812 220.602 54.4661 220.602 51.8359C220.602 51.3932 220.667 51.0547 220.797 50.8203C220.927 50.5859 221.383 49.9609 222.164 48.9453C223.258 47.513 223.805 43.9323 223.805 38.2031C223.805 34.7396 223.479 32.2135 222.828 30.625C221.969 28.4635 220.432 27.3828 218.219 27.3828C216.63 27.3828 215.458 27.9557 214.703 29.1016C214.156 29.9349 213.883 31.4974 213.883 33.7891V41.3281C214.065 44.6615 214.221 46.5495 214.352 46.9922C214.482 47.4349 215.081 48.2552 216.148 49.4531C216.643 50 216.891 50.638 216.891 51.3672C216.891 54.3099 213.062 55.7812 205.406 55.7812C196.448 55.7812 191.969 54.2578 191.969 51.2109C191.969 50.5078 192.112 49.974 192.398 49.6094C192.685 49.2188 193.388 48.6328 194.508 47.8516C195.497 47.1484 196.174 45.2604 196.539 42.1875C196.93 39.0885 197.125 33.9714 197.125 26.8359C197.125 21.237 196.969 17.3568 196.656 15.1953C196.552 14.388 196.357 13.8021 196.07 13.4375C195.81 13.0469 195.302 12.6562 194.547 12.2656C192.932 11.4323 192.125 10.4688 192.125 9.375C192.125 8.07292 192.737 7.01823 193.961 6.21094C195.185 5.40365 197.529 4.53125 200.992 3.59375C205.68 2.29167 209.417 1.64062 212.203 1.64062C213.714 1.64062 214.443 2.29167 214.391 3.59375ZM271.148 16.0547C275.914 16.0547 280.094 17.2917 283.688 19.7656C286.266 21.5365 288.336 23.8411 289.898 26.6797C291.513 29.6484 292.32 32.7474 292.32 35.9766C292.32 41.6276 289.729 46.4323 284.547 50.3906C279.599 54.1667 273.935 56.0547 267.555 56.0547C261.331 56.0547 256.292 54.2839 252.438 50.7422C248.688 47.3047 246.812 42.8255 246.812 37.3047C246.812 31.1589 249.104 26.1328 253.688 22.2266C258.479 18.112 264.299 16.0547 271.148 16.0547ZM268.023 25.0781C266.878 25.0781 265.953 25.5078 265.25 26.3672C264.573 27.2005 264.234 28.3203 264.234 29.7266C264.234 31.2891 264.521 33.4245 265.094 36.1328C265.693 38.8151 266.396 41.1979 267.203 43.2812C268.01 45.4167 269.326 46.4844 271.148 46.4844C273.466 46.4844 274.625 45.013 274.625 42.0703C274.625 39.8828 274.326 37.3958 273.727 34.6094C273.154 31.8229 272.451 29.5573 271.617 27.8125C270.758 26.0417 269.56 25.1302 268.023 25.0781ZM342.555 30.5078L343.102 44.2578C343.154 45.2995 343.31 46.0677 343.57 46.5625C343.857 47.0573 344.664 48.0078 345.992 49.4141C346.383 49.8307 346.578 50.4167 346.578 51.1719C346.578 52.8906 345.549 54.0885 343.492 54.7656C341.435 55.4427 337.763 55.7812 332.477 55.7812C328.883 55.7812 326.344 55.4688 324.859 54.8438C323.323 54.1927 322.555 53.138 322.555 51.6797C322.555 51.1589 322.633 50.7812 322.789 50.5469C322.945 50.2865 323.466 49.6745 324.352 48.7109C325.393 47.6172 325.914 43.9714 325.914 37.7734C325.914 34.1797 325.497 31.5234 324.664 29.8047C323.987 28.4245 322.737 27.7344 320.914 27.7344C319.169 27.7344 317.971 28.2943 317.32 29.4141C316.669 30.5339 316.344 32.5651 316.344 35.5078V43.2422C316.344 44.7786 316.435 45.8333 316.617 46.4062C316.826 46.9792 317.477 48.0859 318.57 49.7266C318.857 50.1953 319 50.7292 319 51.3281C319 52.8646 317.932 53.9974 315.797 54.7266C313.661 55.4557 310.328 55.8203 305.797 55.8203C298.557 55.8203 294.938 54.3229 294.938 51.3281C294.938 50.7031 295.042 50.2344 295.25 49.9219C295.484 49.5833 296.018 49.1146 296.852 48.5156C297.529 48.0208 297.958 47.4609 298.141 46.8359C298.323 46.1849 298.492 44.6094 298.648 42.1094C298.831 39.1406 298.922 36.0286 298.922 32.7734C298.922 30.9766 298.779 29.8047 298.492 29.2578C298.232 28.6849 297.451 27.9948 296.148 27.1875C295.029 26.4844 294.469 25.625 294.469 24.6094C294.469 23.5677 294.924 22.7214 295.836 22.0703C296.747 21.3932 298.622 20.5469 301.461 19.5312C303.961 18.6458 306.37 17.9036 308.688 17.3047C311.005 16.6797 312.594 16.3672 313.453 16.3672C314.234 16.3672 314.885 16.6536 315.406 17.2266C315.953 17.7995 316.227 18.4766 316.227 19.2578C316.227 19.3359 316.214 19.6615 316.188 20.2344C316.161 20.4427 316.148 20.625 316.148 20.7812C316.148 22.0312 316.669 22.6562 317.711 22.6562C318.336 22.6562 319 22.1615 319.703 21.1719C321.943 17.9427 325.198 16.3281 329.469 16.3281C332.75 16.3281 335.562 17.1875 337.906 18.9062C339.547 20.1302 340.693 21.5755 341.344 23.2422C341.995 24.8828 342.398 27.3047 342.555 30.5078ZM370.562 18.7891V41.4844C370.562 43.2812 370.719 44.5964 371.031 45.4297C371.37 46.263 372.034 47.0312 373.023 47.7344C373.831 48.3073 374.365 48.8021 374.625 49.2188C374.911 49.6094 375.055 50.1172 375.055 50.7422C375.055 54.1016 370.797 55.7812 362.281 55.7812C357.698 55.7812 354.065 55.4167 351.383 54.6875C350.471 54.4271 349.729 53.9714 349.156 53.3203C348.609 52.6693 348.336 51.9271 348.336 51.0938C348.336 50.3906 348.479 49.8438 348.766 49.4531C349.052 49.0625 349.781 48.4375 350.953 47.5781C351.76 46.9792 352.333 46.0026 352.672 44.6484C353.01 43.2943 353.18 41.276 353.18 38.5938C353.18 37.7344 353.115 36.1328 352.984 33.7891C352.88 31.4193 352.802 30.0391 352.75 29.6484C352.594 28.5807 351.865 27.7604 350.562 27.1875C348.948 26.4844 348.141 25.4427 348.141 24.0625C348.141 22.4219 349.195 21.1979 351.305 20.3906C354.221 19.2708 357.346 18.3203 360.68 17.5391C364.013 16.7578 366.591 16.3672 368.414 16.3672C369.846 16.3672 370.562 17.1745 370.562 18.7891ZM362.828 1.67969C365.094 1.67969 366.891 2.10938 368.219 2.96875C369.547 3.80208 370.211 4.9349 370.211 6.36719C370.211 8.3724 369.208 9.96094 367.203 11.1328C364.026 12.9818 360.185 13.9062 355.68 13.9062C353.779 13.9062 352.268 13.5417 351.148 12.8125C349.638 11.875 348.883 10.5729 348.883 8.90625C348.883 6.66667 350.484 4.90885 353.688 3.63281C356.943 2.33073 359.99 1.67969 362.828 1.67969ZM397.32 17.0703H407.672C410.068 17.0703 411.591 17.1224 412.242 17.2266C412.919 17.3047 413.427 17.526 413.766 17.8906C414.208 18.3333 414.43 18.9193 414.43 19.6484C414.43 20.612 414 21.849 413.141 23.3594L402.789 41.7578C401.93 43.2943 401.5 44.375 401.5 45C401.5 46.224 402.424 46.8359 404.273 46.8359C405.602 46.8359 406.656 46.5755 407.438 46.0547C408.245 45.5078 409 44.5703 409.703 43.2422C410.302 42.0443 410.797 41.25 411.188 40.8594C411.578 40.4427 412.047 40.2344 412.594 40.2344C413.74 40.2344 414.677 40.6901 415.406 41.6016C416.135 42.513 416.5 43.6849 416.5 45.1172C416.5 46.7318 416.057 48.4635 415.172 50.3125C414.286 52.1354 413.167 53.6589 411.812 54.8828C410.797 55.7943 409.833 56.25 408.922 56.25C408.531 56.25 408.023 56.1198 407.398 55.8594C406.122 55.3125 404.612 55.026 402.867 55H382.398C378.935 55 377.203 53.9974 377.203 51.9922C377.203 51.5495 377.333 51.0807 377.594 50.5859C377.854 50.0911 378.766 48.5417 380.328 45.9375L389.273 31.5625C390.94 28.9062 391.773 27.2266 391.773 26.5234C391.773 25.4818 390.68 24.9609 388.492 24.9609C387.372 24.9609 386.474 25.1823 385.797 25.625C385.146 26.0417 384.443 26.8359 383.688 28.0078C382.828 29.4141 382.164 30.3255 381.695 30.7422C381.253 31.1328 380.654 31.3281 379.898 31.3281C378.883 31.3281 378.049 30.9375 377.398 30.1562C376.747 29.349 376.422 28.3333 376.422 27.1094C376.422 24.7656 377.216 22.2396 378.805 19.5312C380.315 16.9531 381.76 15.6641 383.141 15.6641C383.453 15.6641 383.87 15.7552 384.391 15.9375C385.823 16.4323 386.956 16.7188 387.789 16.7969C388.648 16.875 391.826 16.9661 397.32 17.0703ZM454.625 37.5H436.266C435.458 37.5 435.055 37.8516 435.055 38.5547C435.055 40.2474 435.966 41.849 437.789 43.3594C439.638 44.8438 441.617 45.5859 443.727 45.5859C444.977 45.5859 446.357 45.3516 447.867 44.8828C449.404 44.388 450.667 43.7891 451.656 43.0859C452.542 42.4609 453.245 42.1484 453.766 42.1484C454.443 42.1484 455.107 42.5651 455.758 43.3984C456.409 44.2318 456.734 45.0911 456.734 45.9766C456.734 47.8516 455.562 49.6615 453.219 51.4062C449.078 54.5052 444.299 56.0547 438.883 56.0547C433.414 56.0547 428.831 54.4661 425.133 51.2891C423.336 49.7266 421.852 47.8385 420.68 45.625C419.143 42.6823 418.375 39.5833 418.375 36.3281C418.375 31.9531 419.703 28.0208 422.359 24.5312C424.651 21.5104 427.568 19.2578 431.109 17.7734C433.766 16.6536 436.643 16.0938 439.742 16.0938C444.69 16.0938 448.896 17.5 452.359 20.3125C454.104 21.7188 455.51 23.3854 456.578 25.3125C457.802 27.5 458.414 29.6354 458.414 31.7188C458.414 33.4115 458.062 34.8047 457.359 35.8984C456.656 36.9661 455.745 37.5 454.625 37.5ZM437.281 30.1953H441.227C442.893 30.1953 443.727 29.4271 443.727 27.8906C443.727 26.4844 443.323 25.3385 442.516 24.4531C441.708 23.5677 440.654 23.125 439.352 23.125C437.893 23.125 436.747 23.6979 435.914 24.8438C435.133 25.9115 434.742 26.9922 434.742 28.0859C434.742 28.8672 434.924 29.4141 435.289 29.7266C435.68 30.0391 436.344 30.1953 437.281 30.1953Z" fill="#6BC819"/>
</svg>
